{
    "patcher": {
        "fileversion": 1,
        "appversion": {
            "major": 9,
            "minor": 1,
            "revision": 3,
            "architecture": "x64",
            "modernui": 1
        },
        "classnamespace": "dsp.gen",
        "rect": [ 50.0, 116.0, 1428.0, 786.0 ],
        "boxes": [
            {
                "box": {
                    "id": "obj-30",
                    "maxclass": "newobj",
                    "numinlets": 1,
                    "numoutlets": 1,
                    "outlettype": [ "" ],
                    "patching_rect": [ 437.3015940785408, 280.1105241179466, 57.0, 22.0 ],
                    "text": "history fb"
                }
            },
            {
                "box": {
                    "id": "obj-29",
                    "maxclass": "newobj",
                    "numinlets": 3,
                    "numoutlets": 1,
                    "outlettype": [ "" ],
                    "patching_rect": [ 746.0317575931549, 208.73016196489334, 61.0, 22.0 ],
                    "text": "selector 2"
                }
            },
            {
                "box": {
                    "id": "obj-27",
                    "linecount": 3,
                    "maxclass": "comment",
                    "numinlets": 1,
                    "numoutlets": 0,
                    "patching_rect": [ 980.9523961544037, 148.82598233222961, 75.0, 47.0 ],
                    "text": "0: no mod\n1: sine wave\n2: feedback"
                }
            },
            {
                "box": {
                    "id": "obj-25",
                    "maxclass": "newobj",
                    "numinlets": 0,
                    "numoutlets": 1,
                    "outlettype": [ "" ],
                    "patching_rect": [ 746.0317575931549, 161.11111360788345, 188.0, 22.0 ],
                    "text": "param modsrc 0 @min 0 @max 2"
                }
            },
            {
                "box": {
                    "id": "obj-23",
                    "maxclass": "newobj",
                    "numinlets": 1,
                    "numoutlets": 1,
                    "outlettype": [ "" ],
                    "patching_rect": [ 320.9972673654556, 56.906082808971405, 76.0, 22.0 ],
                    "text": "* samplerate"
                }
            },
            {
                "box": {
                    "id": "obj-22",
                    "maxclass": "newobj",
                    "numinlets": 1,
                    "numoutlets": 1,
                    "outlettype": [ "" ],
                    "patching_rect": [ 320.9972673654556, 29.834257006645203, 47.0, 22.0 ],
                    "text": "* 0.001"
                }
            },
            {
                "box": {
                    "id": "obj-20",
                    "maxclass": "comment",
                    "numinlets": 1,
                    "numoutlets": 0,
                    "patching_rect": [ 524.312204003334, 6.629834890365601, 92.0, 20.0 ],
                    "text": "glide time in ms"
                }
            },
            {
                "box": {
                    "id": "obj-2",
                    "maxclass": "newobj",
                    "numinlets": 0,
                    "numoutlets": 1,
                    "outlettype": [ "" ],
                    "patching_rect": [ 320.9972673654556, 5.5248624086380005, 201.0, 22.0 ],
                    "text": "param glide 0 @min 0 @max 10000"
                }
            },
            {
                "box": {
                    "id": "obj-17",
                    "maxclass": "newobj",
                    "numinlets": 3,
                    "numoutlets": 1,
                    "outlettype": [ "" ],
                    "patching_rect": [ 310.4972673654556, 137.5690739750862, 40.0, 22.0 ],
                    "text": "slide"
                }
            },
            {
                "box": {
                    "id": "obj-19",
                    "maxclass": "newobj",
                    "numinlets": 2,
                    "numoutlets": 1,
                    "outlettype": [ "" ],
                    "patching_rect": [ 498.89507550001144, 198.89504671096802, 29.5, 22.0 ],
                    "text": "*"
                }
            },
            {
                "box": {
                    "id": "obj-18",
                    "maxclass": "newobj",
                    "numinlets": 0,
                    "numoutlets": 1,
                    "outlettype": [ "" ],
                    "patching_rect": [ 509.39507550001144, 161.32598233222961, 226.0, 22.0 ],
                    "text": "param modratio 1 @min 0.01 @max 100"
                }
            },
            {
                "box": {
                    "id": "obj-3",
                    "maxclass": "newobj",
                    "numinlets": 1,
                    "numoutlets": 2,
                    "outlettype": [ "", "" ],
                    "patching_rect": [ 498.89507550001144, 230.95238453149796, 36.0, 22.0 ],
                    "text": "cycle"
                }
            },
            {
                "box": {
                    "id": "obj-16",
                    "maxclass": "newobj",
                    "numinlets": 0,
                    "numoutlets": 1,
                    "outlettype": [ "" ],
                    "patching_rect": [ 418.78457057476044, 128.7292941212654, 222.0, 22.0 ],
                    "text": "param moddepth 0 @min 0 @max 1000"
                }
            },
            {
                "box": {
                    "id": "obj-15",
                    "maxclass": "newobj",
                    "numinlets": 2,
                    "numoutlets": 1,
                    "outlettype": [ "" ],
                    "patching_rect": [ 408.28733199834824, 161.32598233222961, 29.5, 22.0 ],
                    "text": "*"
                }
            },
            {
                "box": {
                    "id": "obj-14",
                    "maxclass": "newobj",
                    "numinlets": 2,
                    "numoutlets": 1,
                    "outlettype": [ "" ],
                    "patching_rect": [ 310.4972673654556, 167.95581722259521, 29.5, 22.0 ],
                    "text": "+"
                }
            },
            {
                "box": {
                    "id": "obj-13",
                    "maxclass": "newobj",
                    "numinlets": 0,
                    "numoutlets": 1,
                    "outlettype": [ "" ],
                    "patching_rect": [ 188.39780813455582, 326.51936835050583, 209.0, 22.0 ],
                    "text": "param dampen 0.25 @min 0 @max 1"
                }
            },
            {
                "box": {
                    "id": "obj-12",
                    "maxclass": "newobj",
                    "numinlets": 1,
                    "numoutlets": 1,
                    "outlettype": [ "" ],
                    "patching_rect": [ 137.0165877342224, 394.47517597675323, 67.0, 22.0 ],
                    "text": "history avg"
                }
            },
            {
                "box": {
                    "id": "obj-11",
                    "maxclass": "newobj",
                    "numinlets": 3,
                    "numoutlets": 1,
                    "outlettype": [ "" ],
                    "patching_rect": [ 137.0165877342224, 362.43097400665283, 40.0, 22.0 ],
                    "text": "mix"
                }
            },
            {
                "box": {
                    "id": "obj-10",
                    "maxclass": "newobj",
                    "numinlets": 0,
                    "numoutlets": 1,
                    "outlettype": [ "" ],
                    "patching_rect": [ 147.5138263106346, 290.055276453495, 214.0, 22.0 ],
                    "text": "param feedback 0.99 @min 0 @max 1"
                }
            },
            {
                "box": {
                    "id": "obj-9",
                    "maxclass": "newobj",
                    "numinlets": 2,
                    "numoutlets": 1,
                    "outlettype": [ "" ],
                    "patching_rect": [ 137.0165877342224, 326.51936835050583, 29.5, 22.0 ],
                    "text": "*"
                }
            },
            {
                "box": {
                    "id": "obj-8",
                    "maxclass": "newobj",
                    "numinlets": 1,
                    "numoutlets": 1,
                    "outlettype": [ "" ],
                    "patching_rect": [ 310.4972673654556, 198.89504671096802, 78.0, 22.0 ],
                    "text": "!/ samplerate"
                }
            },
            {
                "box": {
                    "id": "obj-6",
                    "maxclass": "newobj",
                    "numinlets": 0,
                    "numoutlets": 1,
                    "outlettype": [ "" ],
                    "patching_rect": [ 309.9447811245918, 96.68509215116501, 241.0, 22.0 ],
                    "text": "param frequency 110 @min 0 @max 20000"
                }
            },
            {
                "box": {
                    "id": "obj-5",
                    "maxclass": "newobj",
                    "numinlets": 2,
                    "numoutlets": 1,
                    "outlettype": [ "" ],
                    "patching_rect": [ 137.49726736545563, 230.95238453149796, 192.0, 22.0 ],
                    "text": "delay @feedback 1 @interp spline"
                }
            },
            {
                "box": {
                    "id": "obj-1",
                    "maxclass": "newobj",
                    "numinlets": 0,
                    "numoutlets": 1,
                    "outlettype": [ "" ],
                    "patching_rect": [ 137.0165877342224, 128.7292941212654, 28.0, 22.0 ],
                    "text": "in 1"
                }
            },
            {
                "box": {
                    "id": "obj-4",
                    "maxclass": "newobj",
                    "numinlets": 1,
                    "numoutlets": 0,
                    "patching_rect": [ 384.53042364120483, 280.1105241179466, 35.0, 22.0 ],
                    "text": "out 1"
                }
            }
        ],
        "lines": [
            {
                "patchline": {
                    "destination": [ "obj-5", 0 ],
                    "source": [ "obj-1", 0 ]
                }
            },
            {
                "patchline": {
                    "destination": [ "obj-9", 1 ],
                    "source": [ "obj-10", 0 ]
                }
            },
            {
                "patchline": {
                    "destination": [ "obj-12", 0 ],
                    "source": [ "obj-11", 0 ]
                }
            },
            {
                "patchline": {
                    "destination": [ "obj-11", 1 ],
                    "order": 0,
                    "source": [ "obj-12", 0 ]
                }
            },
            {
                "patchline": {
                    "destination": [ "obj-5", 0 ],
                    "order": 1,
                    "source": [ "obj-12", 0 ]
                }
            },
            {
                "patchline": {
                    "destination": [ "obj-11", 2 ],
                    "source": [ "obj-13", 0 ]
                }
            },
            {
                "patchline": {
                    "destination": [ "obj-8", 0 ],
                    "source": [ "obj-14", 0 ]
                }
            },
            {
                "patchline": {
                    "destination": [ "obj-14", 1 ],
                    "source": [ "obj-15", 0 ]
                }
            },
            {
                "patchline": {
                    "destination": [ "obj-15", 1 ],
                    "source": [ "obj-16", 0 ]
                }
            },
            {
                "patchline": {
                    "destination": [ "obj-14", 0 ],
                    "order": 1,
                    "source": [ "obj-17", 0 ]
                }
            },
            {
                "patchline": {
                    "destination": [ "obj-19", 0 ],
                    "order": 0,
                    "source": [ "obj-17", 0 ]
                }
            },
            {
                "patchline": {
                    "destination": [ "obj-19", 1 ],
                    "source": [ "obj-18", 0 ]
                }
            },
            {
                "patchline": {
                    "destination": [ "obj-3", 0 ],
                    "source": [ "obj-19", 0 ]
                }
            },
            {
                "patchline": {
                    "destination": [ "obj-22", 0 ],
                    "source": [ "obj-2", 0 ]
                }
            },
            {
                "patchline": {
                    "destination": [ "obj-23", 0 ],
                    "source": [ "obj-22", 0 ]
                }
            },
            {
                "patchline": {
                    "destination": [ "obj-17", 2 ],
                    "order": 0,
                    "source": [ "obj-23", 0 ]
                }
            },
            {
                "patchline": {
                    "destination": [ "obj-17", 1 ],
                    "order": 1,
                    "source": [ "obj-23", 0 ]
                }
            },
            {
                "patchline": {
                    "destination": [ "obj-29", 0 ],
                    "source": [ "obj-25", 0 ]
                }
            },
            {
                "patchline": {
                    "destination": [ "obj-15", 0 ],
                    "source": [ "obj-29", 0 ]
                }
            },
            {
                "patchline": {
                    "destination": [ "obj-29", 1 ],
                    "source": [ "obj-3", 0 ]
                }
            },
            {
                "patchline": {
                    "destination": [ "obj-29", 2 ],
                    "source": [ "obj-30", 0 ]
                }
            },
            {
                "patchline": {
                    "destination": [ "obj-30", 0 ],
                    "order": 0,
                    "source": [ "obj-5", 0 ]
                }
            },
            {
                "patchline": {
                    "destination": [ "obj-4", 0 ],
                    "order": 1,
                    "source": [ "obj-5", 0 ]
                }
            },
            {
                "patchline": {
                    "destination": [ "obj-9", 0 ],
                    "order": 2,
                    "source": [ "obj-5", 0 ]
                }
            },
            {
                "patchline": {
                    "destination": [ "obj-17", 0 ],
                    "source": [ "obj-6", 0 ]
                }
            },
            {
                "patchline": {
                    "destination": [ "obj-5", 1 ],
                    "source": [ "obj-8", 0 ]
                }
            },
            {
                "patchline": {
                    "destination": [ "obj-11", 0 ],
                    "source": [ "obj-9", 0 ]
                }
            }
        ]
    }
}